<svg width="289" height="303" viewBox="0 0 289 303" fill="none" xmlns="http://www.w3.org/2000/svg">
<circle cx="287.458" cy="50.2679" r="3" transform="rotate(80.3739 287.458 50.2679)" fill="#ED0431"/>
<circle cx="278.585" cy="51.7728" r="3" transform="rotate(80.3739 278.585 51.7728)" fill="#ED0431"/>
<circle cx="269.712" cy="53.2778" r="3" transform="rotate(80.3739 269.712 53.2778)" fill="#ED0431"/>
<circle cx="260.838" cy="54.7827" r="3" transform="rotate(80.3739 260.838 54.7827)" fill="#ED0431"/>
<circle cx="251.965" cy="56.2877" r="3" transform="rotate(80.3739 251.965 56.2877)" fill="#ED0431"/>
<circle cx="243.092" cy="57.7927" r="3" transform="rotate(80.3739 243.092 57.7927)" fill="#ED0431"/>
<circle cx="234.218" cy="59.2977" r="3" transform="rotate(80.3739 234.218 59.2977)" fill="#ED0431"/>
<circle cx="225.345" cy="60.8026" r="3" transform="rotate(80.3739 225.345 60.8026)" fill="#ED0431"/>
<circle cx="216.472" cy="62.3076" r="3" transform="rotate(80.3739 216.472 62.3076)" fill="#ED0431"/>
<circle cx="207.599" cy="63.8124" r="3" transform="rotate(80.3739 207.599 63.8124)" fill="#ED0431"/>
<circle cx="198.725" cy="65.3174" r="3" transform="rotate(80.3739 198.725 65.3174)" fill="#ED0431"/>
<circle cx="189.852" cy="66.8224" r="3" transform="rotate(80.3739 189.852 66.8224)" fill="#ED0431"/>
<circle cx="288.963" cy="59.1412" r="3" transform="rotate(80.3739 288.963 59.1412)" fill="#ED0431"/>
<circle cx="280.09" cy="60.6461" r="3" transform="rotate(80.3739 280.09 60.6461)" fill="#ED0431"/>
<circle cx="271.216" cy="62.1511" r="3" transform="rotate(80.3739 271.216 62.1511)" fill="#ED0431"/>
<circle cx="262.343" cy="63.6561" r="3" transform="rotate(80.3739 262.343 63.6561)" fill="#ED0431"/>
<circle cx="253.47" cy="65.1609" r="3" transform="rotate(80.3739 253.47 65.1609)" fill="#ED0431"/>
<circle cx="244.597" cy="66.666" r="3" transform="rotate(80.3739 244.597 66.666)" fill="#ED0431"/>
<circle cx="235.723" cy="68.1708" r="3" transform="rotate(80.3739 235.723 68.1708)" fill="#ED0431"/>
<circle cx="226.85" cy="69.6758" r="3" transform="rotate(80.3739 226.85 69.6758)" fill="#ED0431"/>
<circle cx="217.977" cy="71.1808" r="3" transform="rotate(80.3739 217.977 71.1808)" fill="#ED0431"/>
<circle cx="209.104" cy="72.6857" r="3" transform="rotate(80.3739 209.104 72.6857)" fill="#ED0431"/>
<circle cx="200.23" cy="74.1907" r="3" transform="rotate(80.3739 200.23 74.1907)" fill="#ED0431"/>
<circle cx="191.357" cy="75.6957" r="3" transform="rotate(80.3739 191.357 75.6957)" fill="#ED0431"/>
<circle cx="290.468" cy="68.0145" r="3" transform="rotate(80.3739 290.468 68.0145)" fill="#ED0431"/>
<circle cx="281.595" cy="69.5193" r="3" transform="rotate(80.3739 281.595 69.5193)" fill="#ED0431"/>
<circle cx="272.721" cy="71.0244" r="3" transform="rotate(80.3739 272.721 71.0244)" fill="#ED0431"/>
<circle cx="263.848" cy="72.5294" r="3" transform="rotate(80.3739 263.848 72.5294)" fill="#ED0431"/>
<circle cx="254.975" cy="74.0342" r="3" transform="rotate(80.3739 254.975 74.0342)" fill="#ED0431"/>
<circle cx="246.102" cy="75.5392" r="3" transform="rotate(80.3739 246.102 75.5392)" fill="#ED0431"/>
<circle cx="237.228" cy="77.0441" r="3" transform="rotate(80.3739 237.228 77.0441)" fill="#ED0431"/>
<circle cx="228.355" cy="78.5491" r="3" transform="rotate(80.3739 228.355 78.5491)" fill="#ED0431"/>
<circle cx="219.482" cy="80.0541" r="3" transform="rotate(80.3739 219.482 80.0541)" fill="#ED0431"/>
<circle cx="210.609" cy="81.559" r="3" transform="rotate(80.3739 210.609 81.559)" fill="#ED0431"/>
<circle cx="201.735" cy="83.064" r="3" transform="rotate(80.3739 201.735 83.064)" fill="#ED0431"/>
<circle cx="192.862" cy="84.5689" r="3" transform="rotate(80.3739 192.862 84.5689)" fill="#ED0431"/>
<circle cx="291.973" cy="76.8878" r="3" transform="rotate(80.3739 291.973 76.8878)" fill="#ED0431"/>
<circle cx="283.1" cy="78.3926" r="3" transform="rotate(80.3739 283.1 78.3926)" fill="#ED0431"/>
<circle cx="274.226" cy="79.8976" r="3" transform="rotate(80.3739 274.226 79.8976)" fill="#ED0431"/>
<circle cx="265.353" cy="81.4025" r="3" transform="rotate(80.3739 265.353 81.4025)" fill="#ED0431"/>
<circle cx="256.48" cy="82.9075" r="3" transform="rotate(80.3739 256.48 82.9075)" fill="#ED0431"/>
<circle cx="247.607" cy="84.4125" r="3" transform="rotate(80.3739 247.607 84.4125)" fill="#ED0431"/>
<circle cx="238.733" cy="85.9174" r="3" transform="rotate(80.3739 238.733 85.9174)" fill="#ED0431"/>
<circle cx="229.86" cy="87.4224" r="3" transform="rotate(80.3739 229.86 87.4224)" fill="#ED0431"/>
<circle cx="220.987" cy="88.9274" r="3" transform="rotate(80.3739 220.987 88.9274)" fill="#ED0431"/>
<circle cx="212.113" cy="90.4323" r="3" transform="rotate(80.3739 212.113 90.4323)" fill="#ED0431"/>
<circle cx="203.24" cy="91.9373" r="3" transform="rotate(80.3739 203.24 91.9373)" fill="#ED0431"/>
<circle cx="194.367" cy="93.4422" r="3" transform="rotate(80.3739 194.367 93.4422)" fill="#ED0431"/>
<circle cx="284.605" cy="87.2659" r="3" transform="rotate(80.3739 284.605 87.2659)" fill="#ED0431"/>
<circle cx="275.731" cy="88.7709" r="3" transform="rotate(80.3739 275.731 88.7709)" fill="#ED0431"/>
<circle cx="266.858" cy="90.2758" r="3" transform="rotate(80.3739 266.858 90.2758)" fill="#ED0431"/>
<circle cx="257.985" cy="91.7808" r="3" transform="rotate(80.3739 257.985 91.7808)" fill="#ED0431"/>
<circle cx="249.112" cy="93.2858" r="3" transform="rotate(80.3739 249.112 93.2858)" fill="#ED0431"/>
<circle cx="240.238" cy="94.7907" r="3" transform="rotate(80.3739 240.238 94.7907)" fill="#ED0431"/>
<circle cx="231.365" cy="96.2957" r="3" transform="rotate(80.3739 231.365 96.2957)" fill="#ED0431"/>
<circle cx="222.492" cy="97.8006" r="3" transform="rotate(80.3739 222.492 97.8006)" fill="#ED0431"/>
<circle cx="213.618" cy="99.3056" r="3" transform="rotate(80.3739 213.618 99.3056)" fill="#ED0431"/>
<circle cx="204.745" cy="100.811" r="3" transform="rotate(80.3739 204.745 100.811)" fill="#ED0431"/>
<circle cx="195.872" cy="102.315" r="3" transform="rotate(80.3739 195.872 102.315)" fill="#ED0431"/>
<circle cx="286.11" cy="96.1392" r="3" transform="rotate(80.3739 286.11 96.1392)" fill="#ED0431"/>
<circle cx="277.236" cy="97.6442" r="3" transform="rotate(80.3739 277.236 97.6442)" fill="#ED0431"/>
<circle cx="268.363" cy="99.1491" r="3" transform="rotate(80.3739 268.363 99.1491)" fill="#ED0431"/>
<circle cx="259.49" cy="100.654" r="3" transform="rotate(80.3739 259.49 100.654)" fill="#ED0431"/>
<circle cx="250.617" cy="102.159" r="3" transform="rotate(80.3739 250.617 102.159)" fill="#ED0431"/>
<circle cx="241.743" cy="103.664" r="3" transform="rotate(80.3739 241.743 103.664)" fill="#ED0431"/>
<circle cx="232.87" cy="105.169" r="3" transform="rotate(80.3739 232.87 105.169)" fill="#ED0431"/>
<circle cx="223.997" cy="106.674" r="3" transform="rotate(80.3739 223.997 106.674)" fill="#ED0431"/>
<circle cx="215.123" cy="108.179" r="3" transform="rotate(80.3739 215.123 108.179)" fill="#ED0431"/>
<circle cx="206.25" cy="109.684" r="3" transform="rotate(80.3739 206.25 109.684)" fill="#ED0431"/>
<circle cx="197.377" cy="111.189" r="3" transform="rotate(80.3739 197.377 111.189)" fill="#ED0431"/>
<circle cx="287.615" cy="105.013" r="3" transform="rotate(80.3739 287.615 105.013)" fill="#ED0431"/>
<circle cx="278.741" cy="106.518" r="3" transform="rotate(80.3739 278.741 106.518)" fill="#ED0431"/>
<circle cx="269.868" cy="108.022" r="3" transform="rotate(80.3739 269.868 108.022)" fill="#ED0431"/>
<circle cx="260.995" cy="109.527" r="3" transform="rotate(80.3739 260.995 109.527)" fill="#ED0431"/>
<circle cx="252.121" cy="111.032" r="3" transform="rotate(80.3739 252.121 111.032)" fill="#ED0431"/>
<circle cx="243.248" cy="112.537" r="3" transform="rotate(80.3739 243.248 112.537)" fill="#ED0431"/>
<circle cx="234.375" cy="114.042" r="3" transform="rotate(80.3739 234.375 114.042)" fill="#ED0431"/>
<circle cx="225.502" cy="115.547" r="3" transform="rotate(80.3739 225.502 115.547)" fill="#ED0431"/>
<circle cx="216.628" cy="117.052" r="3" transform="rotate(80.3739 216.628 117.052)" fill="#ED0431"/>
<circle cx="207.755" cy="118.557" r="3" transform="rotate(80.3739 207.755 118.557)" fill="#ED0431"/>
<circle cx="198.882" cy="120.062" r="3" transform="rotate(80.3739 198.882 120.062)" fill="#ED0431"/>
<circle cx="289.12" cy="113.886" r="3" transform="rotate(80.3739 289.12 113.886)" fill="#ED0431"/>
<circle cx="280.246" cy="115.391" r="3" transform="rotate(80.3739 280.246 115.391)" fill="#ED0431"/>
<circle cx="271.373" cy="116.896" r="3" transform="rotate(80.3739 271.373 116.896)" fill="#ED0431"/>
<circle cx="262.5" cy="118.401" r="3" transform="rotate(80.3739 262.5 118.401)" fill="#ED0431"/>
<circle cx="253.626" cy="119.906" r="3" transform="rotate(80.3739 253.626 119.906)" fill="#ED0431"/>
<circle cx="244.753" cy="121.411" r="3" transform="rotate(80.3739 244.753 121.411)" fill="#ED0431"/>
<circle cx="235.88" cy="122.916" r="3" transform="rotate(80.3739 235.88 122.916)" fill="#ED0431"/>
<circle cx="227.007" cy="124.42" r="3" transform="rotate(80.3739 227.007 124.42)" fill="#ED0431"/>
<circle cx="218.133" cy="125.925" r="3" transform="rotate(80.3739 218.133 125.925)" fill="#ED0431"/>
<circle cx="209.26" cy="127.43" r="3" transform="rotate(80.3739 209.26 127.43)" fill="#ED0431"/>
<circle cx="200.387" cy="128.935" r="3" transform="rotate(80.3739 200.387 128.935)" fill="#ED0431"/>
<circle cx="290.624" cy="122.759" r="3" transform="rotate(80.3739 290.624 122.759)" fill="#ED0431"/>
<circle cx="281.751" cy="124.264" r="3" transform="rotate(80.3739 281.751 124.264)" fill="#ED0431"/>
<circle cx="272.878" cy="125.769" r="3" transform="rotate(80.3739 272.878 125.769)" fill="#ED0431"/>
<circle cx="264.005" cy="127.274" r="3" transform="rotate(80.3739 264.005 127.274)" fill="#ED0431"/>
<circle cx="255.131" cy="128.779" r="3" transform="rotate(80.3739 255.131 128.779)" fill="#ED0431"/>
<circle cx="246.258" cy="130.284" r="3" transform="rotate(80.3739 246.258 130.284)" fill="#ED0431"/>
<circle cx="237.385" cy="131.789" r="3" transform="rotate(80.3739 237.385 131.789)" fill="#ED0431"/>
<circle cx="228.512" cy="133.294" r="3" transform="rotate(80.3739 228.512 133.294)" fill="#ED0431"/>
<circle cx="219.638" cy="134.799" r="3" transform="rotate(80.3739 219.638 134.799)" fill="#ED0431"/>
<circle cx="210.765" cy="136.304" r="3" transform="rotate(80.3739 210.765 136.304)" fill="#ED0431"/>
<circle cx="201.892" cy="137.809" r="3" transform="rotate(80.3739 201.892 137.809)" fill="#ED0431"/>
<circle cx="292.129" cy="131.632" r="3" transform="rotate(80.3739 292.129 131.632)" fill="#ED0431"/>
<circle cx="283.256" cy="133.137" r="3" transform="rotate(80.3739 283.256 133.137)" fill="#ED0431"/>
<circle cx="274.383" cy="134.642" r="3" transform="rotate(80.3739 274.383 134.642)" fill="#ED0431"/>
<circle cx="265.51" cy="136.147" r="3" transform="rotate(80.3739 265.51 136.147)" fill="#ED0431"/>
<circle cx="256.636" cy="137.652" r="3" transform="rotate(80.3739 256.636 137.652)" fill="#ED0431"/>
<circle cx="247.763" cy="139.157" r="3" transform="rotate(80.3739 247.763 139.157)" fill="#ED0431"/>
<circle cx="238.89" cy="140.662" r="3" transform="rotate(80.3739 238.89 140.662)" fill="#ED0431"/>
<circle cx="230.016" cy="142.167" r="3" transform="rotate(80.3739 230.016 142.167)" fill="#ED0431"/>
<circle cx="221.143" cy="143.672" r="3" transform="rotate(80.3739 221.143 143.672)" fill="#ED0431"/>
<circle cx="212.27" cy="145.177" r="3" transform="rotate(80.3739 212.27 145.177)" fill="#ED0431"/>
<circle cx="203.397" cy="146.682" r="3" transform="rotate(80.3739 203.397 146.682)" fill="#ED0431"/>
<circle cx="284.761" cy="142.011" r="3" transform="rotate(80.3739 284.761 142.011)" fill="#ED0431"/>
<circle cx="275.888" cy="143.516" r="3" transform="rotate(80.3739 275.888 143.516)" fill="#ED0431"/>
<circle cx="267.015" cy="145.02" r="3" transform="rotate(80.3739 267.015 145.02)" fill="#ED0431"/>
<circle cx="258.141" cy="146.525" r="3" transform="rotate(80.3739 258.141 146.525)" fill="#ED0431"/>
<circle cx="249.268" cy="148.03" r="3" transform="rotate(80.3739 249.268 148.03)" fill="#ED0431"/>
<circle cx="240.395" cy="149.535" r="3" transform="rotate(80.3739 240.395 149.535)" fill="#ED0431"/>
<circle cx="231.521" cy="151.04" r="3" transform="rotate(80.3739 231.521 151.04)" fill="#ED0431"/>
<circle cx="222.648" cy="152.545" r="3" transform="rotate(80.3739 222.648 152.545)" fill="#ED0431"/>
<circle cx="213.775" cy="154.05" r="3" transform="rotate(80.3739 213.775 154.05)" fill="#ED0431"/>
<circle cx="204.902" cy="155.555" r="3" transform="rotate(80.3739 204.902 155.555)" fill="#ED0431"/>
<circle cx="286.266" cy="150.884" r="3" transform="rotate(80.3739 286.266 150.884)" fill="#ED0431"/>
<circle cx="277.393" cy="152.389" r="3" transform="rotate(80.3739 277.393 152.389)" fill="#ED0431"/>
<circle cx="268.52" cy="153.894" r="3" transform="rotate(80.3739 268.52 153.894)" fill="#ED0431"/>
<circle cx="259.646" cy="155.399" r="3" transform="rotate(80.3739 259.646 155.399)" fill="#ED0431"/>
<circle cx="250.773" cy="156.904" r="3" transform="rotate(80.3739 250.773 156.904)" fill="#ED0431"/>
<circle cx="241.9" cy="158.409" r="3" transform="rotate(80.3739 241.9 158.409)" fill="#ED0431"/>
<circle cx="233.026" cy="159.914" r="3" transform="rotate(80.3739 233.026 159.914)" fill="#ED0431"/>
<circle cx="224.153" cy="161.419" r="3" transform="rotate(80.3739 224.153 161.419)" fill="#ED0431"/>
<circle cx="215.28" cy="162.924" r="3" transform="rotate(80.3739 215.28 162.924)" fill="#ED0431"/>
<circle cx="206.407" cy="164.429" r="3" transform="rotate(80.3739 206.407 164.429)" fill="#ED0431"/>
<circle cx="287.771" cy="159.757" r="3" transform="rotate(80.3739 287.771 159.757)" fill="#ED0431"/>
<circle cx="278.898" cy="161.262" r="3" transform="rotate(80.3739 278.898 161.262)" fill="#ED0431"/>
<circle cx="270.024" cy="162.767" r="3" transform="rotate(80.3739 270.024 162.767)" fill="#ED0431"/>
<circle cx="261.151" cy="164.272" r="3" transform="rotate(80.3739 261.151 164.272)" fill="#ED0431"/>
<circle cx="252.278" cy="165.777" r="3" transform="rotate(80.3739 252.278 165.777)" fill="#ED0431"/>
<circle cx="243.405" cy="167.282" r="3" transform="rotate(80.3739 243.405 167.282)" fill="#ED0431"/>
<circle cx="234.531" cy="168.787" r="3" transform="rotate(80.3739 234.531 168.787)" fill="#ED0431"/>
<circle cx="225.658" cy="170.292" r="3" transform="rotate(80.3739 225.658 170.292)" fill="#ED0431"/>
<circle cx="216.785" cy="171.797" r="3" transform="rotate(80.3739 216.785 171.797)" fill="#ED0431"/>
<circle cx="207.912" cy="173.302" r="3" transform="rotate(80.3739 207.912 173.302)" fill="#ED0431"/>
<circle cx="289.276" cy="168.63" r="3" transform="rotate(80.3739 289.276 168.63)" fill="#ED0431"/>
<circle cx="280.403" cy="170.135" r="3" transform="rotate(80.3739 280.403 170.135)" fill="#ED0431"/>
<circle cx="271.529" cy="171.64" r="3" transform="rotate(80.3739 271.529 171.64)" fill="#ED0431"/>
<circle cx="262.656" cy="173.145" r="3" transform="rotate(80.3739 262.656 173.145)" fill="#ED0431"/>
<circle cx="253.783" cy="174.65" r="3" transform="rotate(80.3739 253.783 174.65)" fill="#ED0431"/>
<circle cx="244.91" cy="176.155" r="3" transform="rotate(80.3739 244.91 176.155)" fill="#ED0431"/>
<circle cx="236.036" cy="177.66" r="3" transform="rotate(80.3739 236.036 177.66)" fill="#ED0431"/>
<circle cx="227.163" cy="179.165" r="3" transform="rotate(80.3739 227.163 179.165)" fill="#ED0431"/>
<circle cx="218.29" cy="180.67" r="3" transform="rotate(80.3739 218.29 180.67)" fill="#ED0431"/>
<circle cx="209.416" cy="182.175" r="3" transform="rotate(80.3739 209.416 182.175)" fill="#ED0431"/>
<circle cx="290.781" cy="177.504" r="3" transform="rotate(80.3739 290.781 177.504)" fill="#ED0431"/>
<circle cx="281.908" cy="179.009" r="3" transform="rotate(80.3739 281.908 179.009)" fill="#ED0431"/>
<circle cx="273.034" cy="180.514" r="3" transform="rotate(80.3739 273.034 180.514)" fill="#ED0431"/>
<circle cx="264.161" cy="182.019" r="3" transform="rotate(80.3739 264.161 182.019)" fill="#ED0431"/>
<circle cx="255.288" cy="183.523" r="3" transform="rotate(80.3739 255.288 183.523)" fill="#ED0431"/>
<circle cx="246.415" cy="185.029" r="3" transform="rotate(80.3739 246.415 185.029)" fill="#ED0431"/>
<circle cx="237.541" cy="186.534" r="3" transform="rotate(80.3739 237.541 186.534)" fill="#ED0431"/>
<circle cx="228.668" cy="188.038" r="3" transform="rotate(80.3739 228.668 188.038)" fill="#ED0431"/>
<circle cx="219.795" cy="189.543" r="3" transform="rotate(80.3739 219.795 189.543)" fill="#ED0431"/>
<circle cx="210.921" cy="191.048" r="3" transform="rotate(80.3739 210.921 191.048)" fill="#ED0431"/>
<circle cx="292.286" cy="186.377" r="3" transform="rotate(80.3739 292.286 186.377)" fill="#ED0431"/>
<circle cx="283.413" cy="187.882" r="3" transform="rotate(80.3739 283.413 187.882)" fill="#ED0431"/>
<circle cx="274.539" cy="189.387" r="3" transform="rotate(80.3739 274.539 189.387)" fill="#ED0431"/>
<circle cx="265.666" cy="190.892" r="3" transform="rotate(80.3739 265.666 190.892)" fill="#ED0431"/>
<circle cx="256.793" cy="192.397" r="3" transform="rotate(80.3739 256.793 192.397)" fill="#ED0431"/>
<circle cx="247.92" cy="193.902" r="3" transform="rotate(80.3739 247.92 193.902)" fill="#ED0431"/>
<circle cx="239.046" cy="195.407" r="3" transform="rotate(80.3739 239.046 195.407)" fill="#ED0431"/>
<circle cx="230.173" cy="196.912" r="3" transform="rotate(80.3739 230.173 196.912)" fill="#ED0431"/>
<circle cx="221.3" cy="198.417" r="3" transform="rotate(80.3739 221.3 198.417)" fill="#ED0431"/>
<circle cx="212.426" cy="199.922" r="3" transform="rotate(80.3739 212.426 199.922)" fill="#ED0431"/>
<circle cx="284.918" cy="196.755" r="3" transform="rotate(80.3739 284.918 196.755)" fill="#ED0431"/>
<circle cx="276.044" cy="198.26" r="3" transform="rotate(80.3739 276.044 198.26)" fill="#ED0431"/>
<circle cx="267.171" cy="199.765" r="3" transform="rotate(80.3739 267.171 199.765)" fill="#ED0431"/>
<circle cx="258.298" cy="201.27" r="3" transform="rotate(80.3739 258.298 201.27)" fill="#ED0431"/>
<circle cx="249.424" cy="202.775" r="3" transform="rotate(80.3739 249.424 202.775)" fill="#ED0431"/>
<circle cx="240.551" cy="204.28" r="3" transform="rotate(80.3739 240.551 204.28)" fill="#ED0431"/>
<circle cx="231.678" cy="205.785" r="3" transform="rotate(80.3739 231.678 205.785)" fill="#ED0431"/>
<circle cx="222.805" cy="207.29" r="3" transform="rotate(80.3739 222.805 207.29)" fill="#ED0431"/>
<circle cx="213.931" cy="208.795" r="3" transform="rotate(80.3739 213.931 208.795)" fill="#ED0431"/>
<circle cx="286.423" cy="205.628" r="3" transform="rotate(80.3739 286.423 205.628)" fill="#ED0431"/>
<circle cx="277.549" cy="207.133" r="3" transform="rotate(80.3739 277.549 207.133)" fill="#ED0431"/>
<circle cx="268.676" cy="208.638" r="3" transform="rotate(80.3739 268.676 208.638)" fill="#ED0431"/>
<circle cx="259.803" cy="210.143" r="3" transform="rotate(80.3739 259.803 210.143)" fill="#ED0431"/>
<circle cx="250.929" cy="211.648" r="3" transform="rotate(80.3739 250.929 211.648)" fill="#ED0431"/>
<circle cx="242.056" cy="213.153" r="3" transform="rotate(80.3739 242.056 213.153)" fill="#ED0431"/>
<circle cx="233.183" cy="214.658" r="3" transform="rotate(80.3739 233.183 214.658)" fill="#ED0431"/>
<circle cx="224.31" cy="216.163" r="3" transform="rotate(80.3739 224.31 216.163)" fill="#ED0431"/>
<circle cx="215.436" cy="217.668" r="3" transform="rotate(80.3739 215.436 217.668)" fill="#ED0431"/>
<circle cx="287.927" cy="214.502" r="3" transform="rotate(80.3739 287.927 214.502)" fill="#ED0431"/>
<circle cx="279.054" cy="216.007" r="3" transform="rotate(80.3739 279.054 216.007)" fill="#ED0431"/>
<circle cx="270.181" cy="217.512" r="3" transform="rotate(80.3739 270.181 217.512)" fill="#ED0431"/>
<circle cx="261.308" cy="219.017" r="3" transform="rotate(80.3739 261.308 219.017)" fill="#ED0431"/>
<circle cx="252.434" cy="220.522" r="3" transform="rotate(80.3739 252.434 220.522)" fill="#ED0431"/>
<circle cx="243.561" cy="222.027" r="3" transform="rotate(80.3739 243.561 222.027)" fill="#ED0431"/>
<circle cx="234.688" cy="223.532" r="3" transform="rotate(80.3739 234.688 223.532)" fill="#ED0431"/>
<circle cx="225.815" cy="225.036" r="3" transform="rotate(80.3739 225.815 225.036)" fill="#ED0431"/>
<circle cx="216.941" cy="226.541" r="3" transform="rotate(80.3739 216.941 226.541)" fill="#ED0431"/>
<circle cx="289.432" cy="223.375" r="3" transform="rotate(80.3739 289.432 223.375)" fill="#ED0431"/>
<circle cx="280.559" cy="224.88" r="3" transform="rotate(80.3739 280.559 224.88)" fill="#ED0431"/>
<circle cx="271.686" cy="226.385" r="3" transform="rotate(80.3739 271.686 226.385)" fill="#ED0431"/>
<circle cx="262.813" cy="227.89" r="3" transform="rotate(80.3739 262.813 227.89)" fill="#ED0431"/>
<circle cx="253.939" cy="229.395" r="3" transform="rotate(80.3739 253.939 229.395)" fill="#ED0431"/>
<circle cx="245.066" cy="230.9" r="3" transform="rotate(80.3739 245.066 230.9)" fill="#ED0431"/>
<circle cx="236.193" cy="232.405" r="3" transform="rotate(80.3739 236.193 232.405)" fill="#ED0431"/>
<circle cx="227.32" cy="233.91" r="3" transform="rotate(80.3739 227.32 233.91)" fill="#ED0431"/>
<circle cx="218.446" cy="235.415" r="3" transform="rotate(80.3739 218.446 235.415)" fill="#ED0431"/>
<circle cx="189.731" cy="67.0771" r="3" transform="rotate(80.3739 189.731 67.0771)" fill="#ED0431"/>
<circle cx="180.858" cy="68.5821" r="3" transform="rotate(80.3739 180.858 68.5821)" fill="#ED0431"/>
<circle cx="171.984" cy="70.087" r="3" transform="rotate(80.3739 171.984 70.087)" fill="#ED0431"/>
<circle cx="163.111" cy="71.592" r="3" transform="rotate(80.3739 163.111 71.592)" fill="#ED0431"/>
<circle cx="154.238" cy="73.0969" r="3" transform="rotate(80.3739 154.238 73.0969)" fill="#ED0431"/>
<circle cx="145.365" cy="74.6019" r="3" transform="rotate(80.3739 145.365 74.6019)" fill="#ED0431"/>
<circle cx="136.491" cy="76.1069" r="3" transform="rotate(80.3739 136.491 76.1069)" fill="#ED0431"/>
<circle cx="127.618" cy="77.6118" r="3" transform="rotate(80.3739 127.618 77.6118)" fill="#ED0431"/>
<circle cx="118.745" cy="79.1168" r="3" transform="rotate(80.3739 118.745 79.1168)" fill="#ED0431"/>
<circle cx="109.871" cy="80.6218" r="3" transform="rotate(80.3739 109.871 80.6218)" fill="#ED0431"/>
<circle cx="100.998" cy="82.1266" r="3" transform="rotate(80.3739 100.998 82.1266)" fill="#ED0431"/>
<circle cx="92.1248" cy="83.6317" r="3" transform="rotate(80.3739 92.1248 83.6317)" fill="#ED0431"/>
<circle cx="83.2515" cy="85.1365" r="3" transform="rotate(80.3739 83.2515 85.1365)" fill="#ED0431"/>
<circle cx="74.3783" cy="86.6415" r="3" transform="rotate(80.3739 74.3783 86.6415)" fill="#ED0431"/>
<circle cx="65.505" cy="88.1465" r="3" transform="rotate(80.3739 65.505 88.1465)" fill="#ED0431"/>
<circle cx="56.6317" cy="89.6514" r="3" transform="rotate(80.3739 56.6317 89.6514)" fill="#ED0431"/>
<circle cx="47.7584" cy="91.1564" r="3" transform="rotate(80.3739 47.7584 91.1564)" fill="#ED0431"/>
<circle cx="38.8851" cy="92.6613" r="3" transform="rotate(80.3739 38.8851 92.6613)" fill="#ED0431"/>
<circle cx="30.0118" cy="94.1663" r="3" transform="rotate(80.3739 30.0118 94.1663)" fill="#ED0431"/>
<circle cx="21.1386" cy="95.6713" r="3" transform="rotate(80.3739 21.1386 95.6713)" fill="#ED0431"/>
<circle cx="191.236" cy="75.9504" r="3" transform="rotate(80.3739 191.236 75.9504)" fill="#ED0431"/>
<circle cx="182.363" cy="77.4554" r="3" transform="rotate(80.3739 182.363 77.4554)" fill="#ED0431"/>
<circle cx="173.489" cy="78.9603" r="3" transform="rotate(80.3739 173.489 78.9603)" fill="#ED0431"/>
<circle cx="164.616" cy="80.4653" r="3" transform="rotate(80.3739 164.616 80.4653)" fill="#ED0431"/>
<circle cx="155.743" cy="81.9702" r="3" transform="rotate(80.3739 155.743 81.9702)" fill="#ED0431"/>
<circle cx="146.869" cy="83.4752" r="3" transform="rotate(80.3739 146.869 83.4752)" fill="#ED0431"/>
<circle cx="137.996" cy="84.9802" r="3" transform="rotate(80.3739 137.996 84.9802)" fill="#ED0431"/>
<circle cx="129.123" cy="86.485" r="3" transform="rotate(80.3739 129.123 86.485)" fill="#ED0431"/>
<circle cx="120.25" cy="87.9901" r="3" transform="rotate(80.3739 120.25 87.9901)" fill="#ED0431"/>
<circle cx="111.376" cy="89.4949" r="3" transform="rotate(80.3739 111.376 89.4949)" fill="#ED0431"/>
<circle cx="102.503" cy="90.9999" r="3" transform="rotate(80.3739 102.503 90.9999)" fill="#ED0431"/>
<circle cx="93.6298" cy="92.5049" r="3" transform="rotate(80.3739 93.6298 92.5049)" fill="#ED0431"/>
<circle cx="84.7565" cy="94.0098" r="3" transform="rotate(80.3739 84.7565 94.0098)" fill="#ED0431"/>
<circle cx="75.8832" cy="95.5148" r="3" transform="rotate(80.3739 75.8832 95.5148)" fill="#ED0431"/>
<circle cx="67.0099" cy="97.0197" r="3" transform="rotate(80.3739 67.0099 97.0197)" fill="#ED0431"/>
<circle cx="58.1367" cy="98.5247" r="3" transform="rotate(80.3739 58.1367 98.5247)" fill="#ED0431"/>
<circle cx="49.2634" cy="100.03" r="3" transform="rotate(80.3739 49.2634 100.03)" fill="#ED0431"/>
<circle cx="40.3901" cy="101.535" r="3" transform="rotate(80.3739 40.3901 101.535)" fill="#ED0431"/>
<circle cx="31.5168" cy="103.04" r="3" transform="rotate(80.3739 31.5168 103.04)" fill="#ED0431"/>
<circle cx="22.6435" cy="104.545" r="3" transform="rotate(80.3739 22.6435 104.545)" fill="#ED0431"/>
<circle cx="192.741" cy="84.8237" r="3" transform="rotate(80.3739 192.741 84.8237)" fill="#ED0431"/>
<circle cx="183.868" cy="86.3286" r="3" transform="rotate(80.3739 183.868 86.3286)" fill="#ED0431"/>
<circle cx="174.994" cy="87.8336" r="3" transform="rotate(80.3739 174.994 87.8336)" fill="#ED0431"/>
<circle cx="166.121" cy="89.3386" r="3" transform="rotate(80.3739 166.121 89.3386)" fill="#ED0431"/>
<circle cx="157.248" cy="90.8434" r="3" transform="rotate(80.3739 157.248 90.8434)" fill="#ED0431"/>
<circle cx="148.374" cy="92.3484" r="3" transform="rotate(80.3739 148.374 92.3484)" fill="#ED0431"/>
<circle cx="139.501" cy="93.8535" r="3" transform="rotate(80.3739 139.501 93.8535)" fill="#ED0431"/>
<circle cx="130.628" cy="95.3583" r="3" transform="rotate(80.3739 130.628 95.3583)" fill="#ED0431"/>
<circle cx="121.755" cy="96.8633" r="3" transform="rotate(80.3739 121.755 96.8633)" fill="#ED0431"/>
<circle cx="112.881" cy="98.3682" r="3" transform="rotate(80.3739 112.881 98.3682)" fill="#ED0431"/>
<circle cx="104.008" cy="99.8732" r="3" transform="rotate(80.3739 104.008 99.8732)" fill="#ED0431"/>
<circle cx="95.1347" cy="101.378" r="3" transform="rotate(80.3739 95.1347 101.378)" fill="#ED0431"/>
<circle cx="86.2615" cy="102.883" r="3" transform="rotate(80.3739 86.2615 102.883)" fill="#ED0431"/>
<circle cx="77.3882" cy="104.388" r="3" transform="rotate(80.3739 77.3882 104.388)" fill="#ED0431"/>
<circle cx="68.5149" cy="105.893" r="3" transform="rotate(80.3739 68.5149 105.893)" fill="#ED0431"/>
<circle cx="59.6416" cy="107.398" r="3" transform="rotate(80.3739 59.6416 107.398)" fill="#ED0431"/>
<circle cx="50.7683" cy="108.903" r="3" transform="rotate(80.3739 50.7683 108.903)" fill="#ED0431"/>
<circle cx="41.895" cy="110.408" r="3" transform="rotate(80.3739 41.895 110.408)" fill="#ED0431"/>
<circle cx="33.0218" cy="111.913" r="3" transform="rotate(80.3739 33.0218 111.913)" fill="#ED0431"/>
<circle cx="24.1485" cy="113.418" r="3" transform="rotate(80.3739 24.1485 113.418)" fill="#ED0431"/>
<circle cx="194.246" cy="93.697" r="3" transform="rotate(80.3739 194.246 93.697)" fill="#ED0431"/>
<circle cx="185.373" cy="95.2018" r="3" transform="rotate(80.3739 185.373 95.2018)" fill="#ED0431"/>
<circle cx="176.499" cy="96.7068" r="3" transform="rotate(80.3739 176.499 96.7068)" fill="#ED0431"/>
<circle cx="167.626" cy="98.2119" r="3" transform="rotate(80.3739 167.626 98.2119)" fill="#ED0431"/>
<circle cx="158.753" cy="99.7167" r="3" transform="rotate(80.3739 158.753 99.7167)" fill="#ED0431"/>
<circle cx="149.879" cy="101.222" r="3" transform="rotate(80.3739 149.879 101.222)" fill="#ED0431"/>
<circle cx="141.006" cy="102.727" r="3" transform="rotate(80.3739 141.006 102.727)" fill="#ED0431"/>
<circle cx="132.133" cy="104.232" r="3" transform="rotate(80.3739 132.133 104.232)" fill="#ED0431"/>
<circle cx="123.26" cy="105.737" r="3" transform="rotate(80.3739 123.26 105.737)" fill="#ED0431"/>
<circle cx="114.386" cy="107.242" r="3" transform="rotate(80.3739 114.386 107.242)" fill="#ED0431"/>
<circle cx="105.513" cy="108.747" r="3" transform="rotate(80.3739 105.513 108.747)" fill="#ED0431"/>
<circle cx="96.6397" cy="110.251" r="3" transform="rotate(80.3739 96.6397 110.251)" fill="#ED0431"/>
<circle cx="87.7664" cy="111.756" r="3" transform="rotate(80.3739 87.7664 111.756)" fill="#ED0431"/>
<circle cx="78.8931" cy="113.261" r="3" transform="rotate(80.3739 78.8931 113.261)" fill="#ED0431"/>
<circle cx="70.0198" cy="114.766" r="3" transform="rotate(80.3739 70.0198 114.766)" fill="#ED0431"/>
<circle cx="61.1466" cy="116.271" r="3" transform="rotate(80.3739 61.1466 116.271)" fill="#ED0431"/>
<circle cx="52.2733" cy="117.776" r="3" transform="rotate(80.3739 52.2733 117.776)" fill="#ED0431"/>
<circle cx="43.4" cy="119.281" r="3" transform="rotate(80.3739 43.4 119.281)" fill="#ED0431"/>
<circle cx="34.5267" cy="120.786" r="3" transform="rotate(80.3739 34.5267 120.786)" fill="#ED0431"/>
<circle cx="25.6534" cy="122.291" r="3" transform="rotate(80.3739 25.6534 122.291)" fill="#ED0431"/>
<circle cx="195.751" cy="102.57" r="3" transform="rotate(80.3739 195.751 102.57)" fill="#ED0431"/>
<circle cx="186.877" cy="104.075" r="3" transform="rotate(80.3739 186.877 104.075)" fill="#ED0431"/>
<circle cx="178.004" cy="105.58" r="3" transform="rotate(80.3739 178.004 105.58)" fill="#ED0431"/>
<circle cx="169.131" cy="107.085" r="3" transform="rotate(80.3739 169.131 107.085)" fill="#ED0431"/>
<circle cx="160.258" cy="108.59" r="3" transform="rotate(80.3739 160.258 108.59)" fill="#ED0431"/>
<circle cx="151.384" cy="110.095" r="3" transform="rotate(80.3739 151.384 110.095)" fill="#ED0431"/>
<circle cx="142.511" cy="111.6" r="3" transform="rotate(80.3739 142.511 111.6)" fill="#ED0431"/>
<circle cx="133.638" cy="113.105" r="3" transform="rotate(80.3739 133.638 113.105)" fill="#ED0431"/>
<circle cx="124.764" cy="114.61" r="3" transform="rotate(80.3739 124.764 114.61)" fill="#ED0431"/>
<circle cx="115.891" cy="116.115" r="3" transform="rotate(80.3739 115.891 116.115)" fill="#ED0431"/>
<circle cx="107.018" cy="117.62" r="3" transform="rotate(80.3739 107.018 117.62)" fill="#ED0431"/>
<circle cx="98.1446" cy="119.125" r="3" transform="rotate(80.3739 98.1446 119.125)" fill="#ED0431"/>
<circle cx="89.2714" cy="120.63" r="3" transform="rotate(80.3739 89.2714 120.63)" fill="#ED0431"/>
<circle cx="80.3981" cy="122.135" r="3" transform="rotate(80.3739 80.3981 122.135)" fill="#ED0431"/>
<circle cx="71.5248" cy="123.64" r="3" transform="rotate(80.3739 71.5248 123.64)" fill="#ED0431"/>
<circle cx="62.6515" cy="125.145" r="3" transform="rotate(80.3739 62.6515 125.145)" fill="#ED0431"/>
<circle cx="53.7782" cy="126.649" r="3" transform="rotate(80.3739 53.7782 126.649)" fill="#ED0431"/>
<circle cx="44.905" cy="128.154" r="3" transform="rotate(80.3739 44.905 128.154)" fill="#ED0431"/>
<circle cx="36.0317" cy="129.659" r="3" transform="rotate(80.3739 36.0317 129.659)" fill="#ED0431"/>
<circle cx="27.1584" cy="131.164" r="3" transform="rotate(80.3739 27.1584 131.164)" fill="#ED0431"/>
<circle cx="197.256" cy="111.444" r="3" transform="rotate(80.3739 197.256 111.444)" fill="#ED0431"/>
<circle cx="188.382" cy="112.948" r="3" transform="rotate(80.3739 188.382 112.948)" fill="#ED0431"/>
<circle cx="179.509" cy="114.453" r="3" transform="rotate(80.3739 179.509 114.453)" fill="#ED0431"/>
<circle cx="170.636" cy="115.958" r="3" transform="rotate(80.3739 170.636 115.958)" fill="#ED0431"/>
<circle cx="161.763" cy="117.463" r="3" transform="rotate(80.3739 161.763 117.463)" fill="#ED0431"/>
<circle cx="152.889" cy="118.968" r="3" transform="rotate(80.3739 152.889 118.968)" fill="#ED0431"/>
<circle cx="144.016" cy="120.473" r="3" transform="rotate(80.3739 144.016 120.473)" fill="#ED0431"/>
<circle cx="135.143" cy="121.978" r="3" transform="rotate(80.3739 135.143 121.978)" fill="#ED0431"/>
<circle cx="126.269" cy="123.483" r="3" transform="rotate(80.3739 126.269 123.483)" fill="#ED0431"/>
<circle cx="117.396" cy="124.988" r="3" transform="rotate(80.3739 117.396 124.988)" fill="#ED0431"/>
<circle cx="108.523" cy="126.493" r="3" transform="rotate(80.3739 108.523 126.493)" fill="#ED0431"/>
<circle cx="99.6496" cy="127.998" r="3" transform="rotate(80.3739 99.6496 127.998)" fill="#ED0431"/>
<circle cx="90.7763" cy="129.503" r="3" transform="rotate(80.3739 90.7763 129.503)" fill="#ED0431"/>
<circle cx="81.903" cy="131.008" r="3" transform="rotate(80.3739 81.903 131.008)" fill="#ED0431"/>
<circle cx="73.0298" cy="132.513" r="3" transform="rotate(80.3739 73.0298 132.513)" fill="#ED0431"/>
<circle cx="64.1565" cy="134.018" r="3" transform="rotate(80.3739 64.1565 134.018)" fill="#ED0431"/>
<circle cx="55.2832" cy="135.523" r="3" transform="rotate(80.3739 55.2832 135.523)" fill="#ED0431"/>
<circle cx="46.4099" cy="137.028" r="3" transform="rotate(80.3739 46.4099 137.028)" fill="#ED0431"/>
<circle cx="37.5366" cy="138.533" r="3" transform="rotate(80.3739 37.5366 138.533)" fill="#ED0431"/>
<circle cx="28.6634" cy="140.038" r="3" transform="rotate(80.3739 28.6634 140.038)" fill="#ED0431"/>
<circle cx="198.761" cy="120.317" r="3" transform="rotate(80.3739 198.761 120.317)" fill="#ED0431"/>
<circle cx="189.887" cy="121.822" r="3" transform="rotate(80.3739 189.887 121.822)" fill="#ED0431"/>
<circle cx="181.014" cy="123.327" r="3" transform="rotate(80.3739 181.014 123.327)" fill="#ED0431"/>
<circle cx="172.141" cy="124.832" r="3" transform="rotate(80.3739 172.141 124.832)" fill="#ED0431"/>
<circle cx="163.268" cy="126.337" r="3" transform="rotate(80.3739 163.268 126.337)" fill="#ED0431"/>
<circle cx="154.394" cy="127.842" r="3" transform="rotate(80.3739 154.394 127.842)" fill="#ED0431"/>
<circle cx="145.521" cy="129.346" r="3" transform="rotate(80.3739 145.521 129.346)" fill="#ED0431"/>
<circle cx="136.648" cy="130.852" r="3" transform="rotate(80.3739 136.648 130.852)" fill="#ED0431"/>
<circle cx="127.774" cy="132.356" r="3" transform="rotate(80.3739 127.774 132.356)" fill="#ED0431"/>
<circle cx="118.901" cy="133.861" r="3" transform="rotate(80.3739 118.901 133.861)" fill="#ED0431"/>
<circle cx="110.028" cy="135.366" r="3" transform="rotate(80.3739 110.028 135.366)" fill="#ED0431"/>
<circle cx="101.155" cy="136.871" r="3" transform="rotate(80.3739 101.155 136.871)" fill="#ED0431"/>
<circle cx="92.2813" cy="138.376" r="3" transform="rotate(80.3739 92.2813 138.376)" fill="#ED0431"/>
<circle cx="83.408" cy="139.881" r="3" transform="rotate(80.3739 83.408 139.881)" fill="#ED0431"/>
<circle cx="74.5347" cy="141.386" r="3" transform="rotate(80.3739 74.5347 141.386)" fill="#ED0431"/>
<circle cx="65.6614" cy="142.891" r="3" transform="rotate(80.3739 65.6614 142.891)" fill="#ED0431"/>
<circle cx="56.7882" cy="144.396" r="3" transform="rotate(80.3739 56.7882 144.396)" fill="#ED0431"/>
<circle cx="47.9149" cy="145.901" r="3" transform="rotate(80.3739 47.9149 145.901)" fill="#ED0431"/>
<circle cx="39.0416" cy="147.406" r="3" transform="rotate(80.3739 39.0416 147.406)" fill="#ED0431"/>
<circle cx="30.1683" cy="148.911" r="3" transform="rotate(80.3739 30.1683 148.911)" fill="#ED0431"/>
<circle cx="200.266" cy="129.19" r="3" transform="rotate(80.3739 200.266 129.19)" fill="#ED0431"/>
<circle cx="191.392" cy="130.695" r="3" transform="rotate(80.3739 191.392 130.695)" fill="#ED0431"/>
<circle cx="182.519" cy="132.2" r="3" transform="rotate(80.3739 182.519 132.2)" fill="#ED0431"/>
<circle cx="173.646" cy="133.705" r="3" transform="rotate(80.3739 173.646 133.705)" fill="#ED0431"/>
<circle cx="164.772" cy="135.21" r="3" transform="rotate(80.3739 164.772 135.21)" fill="#ED0431"/>
<circle cx="155.899" cy="136.715" r="3" transform="rotate(80.3739 155.899 136.715)" fill="#ED0431"/>
<circle cx="147.026" cy="138.22" r="3" transform="rotate(80.3739 147.026 138.22)" fill="#ED0431"/>
<circle cx="138.153" cy="139.725" r="3" transform="rotate(80.3739 138.153 139.725)" fill="#ED0431"/>
<circle cx="129.279" cy="141.23" r="3" transform="rotate(80.3739 129.279 141.23)" fill="#ED0431"/>
<circle cx="120.406" cy="142.735" r="3" transform="rotate(80.3739 120.406 142.735)" fill="#ED0431"/>
<circle cx="111.533" cy="144.24" r="3" transform="rotate(80.3739 111.533 144.24)" fill="#ED0431"/>
<circle cx="102.66" cy="145.745" r="3" transform="rotate(80.3739 102.66 145.745)" fill="#ED0431"/>
<circle cx="93.7862" cy="147.25" r="3" transform="rotate(80.3739 93.7862 147.25)" fill="#ED0431"/>
<circle cx="84.913" cy="148.754" r="3" transform="rotate(80.3739 84.913 148.754)" fill="#ED0431"/>
<circle cx="76.0397" cy="150.259" r="3" transform="rotate(80.3739 76.0397 150.259)" fill="#ED0431"/>
<circle cx="67.1664" cy="151.764" r="3" transform="rotate(80.3739 67.1664 151.764)" fill="#ED0431"/>
<circle cx="58.2931" cy="153.269" r="3" transform="rotate(80.3739 58.2931 153.269)" fill="#ED0431"/>
<circle cx="49.4198" cy="154.774" r="3" transform="rotate(80.3739 49.4198 154.774)" fill="#ED0431"/>
<circle cx="40.5466" cy="156.279" r="3" transform="rotate(80.3739 40.5466 156.279)" fill="#ED0431"/>
<circle cx="31.6733" cy="157.784" r="3" transform="rotate(80.3739 31.6733 157.784)" fill="#ED0431"/>
<circle cx="201.771" cy="138.063" r="3" transform="rotate(80.3739 201.771 138.063)" fill="#ED0431"/>
<circle cx="192.897" cy="139.568" r="3" transform="rotate(80.3739 192.897 139.568)" fill="#ED0431"/>
<circle cx="184.024" cy="141.073" r="3" transform="rotate(80.3739 184.024 141.073)" fill="#ED0431"/>
<circle cx="175.151" cy="142.578" r="3" transform="rotate(80.3739 175.151 142.578)" fill="#ED0431"/>
<circle cx="166.277" cy="144.083" r="3" transform="rotate(80.3739 166.277 144.083)" fill="#ED0431"/>
<circle cx="157.404" cy="145.588" r="3" transform="rotate(80.3739 157.404 145.588)" fill="#ED0431"/>
<circle cx="148.531" cy="147.093" r="3" transform="rotate(80.3739 148.531 147.093)" fill="#ED0431"/>
<circle cx="139.658" cy="148.598" r="3" transform="rotate(80.3739 139.658 148.598)" fill="#ED0431"/>
<circle cx="130.784" cy="150.103" r="3" transform="rotate(80.3739 130.784 150.103)" fill="#ED0431"/>
<circle cx="121.911" cy="151.608" r="3" transform="rotate(80.3739 121.911 151.608)" fill="#ED0431"/>
<circle cx="113.038" cy="153.113" r="3" transform="rotate(80.3739 113.038 153.113)" fill="#ED0431"/>
<circle cx="104.164" cy="154.618" r="3" transform="rotate(80.3739 104.164 154.618)" fill="#ED0431"/>
<circle cx="95.2912" cy="156.123" r="3" transform="rotate(80.3739 95.2912 156.123)" fill="#ED0431"/>
<circle cx="86.4179" cy="157.628" r="3" transform="rotate(80.3739 86.4179 157.628)" fill="#ED0431"/>
<circle cx="77.5446" cy="159.133" r="3" transform="rotate(80.3739 77.5446 159.133)" fill="#ED0431"/>
<circle cx="68.6713" cy="160.638" r="3" transform="rotate(80.3739 68.6713 160.638)" fill="#ED0431"/>
<circle cx="59.7981" cy="162.143" r="3" transform="rotate(80.3739 59.7981 162.143)" fill="#ED0431"/>
<circle cx="50.9248" cy="163.648" r="3" transform="rotate(80.3739 50.9248 163.648)" fill="#ED0431"/>
<circle cx="42.0515" cy="165.153" r="3" transform="rotate(80.3739 42.0515 165.153)" fill="#ED0431"/>
<circle cx="33.1782" cy="166.658" r="3" transform="rotate(80.3739 33.1782 166.658)" fill="#ED0431"/>
<circle cx="203.276" cy="146.937" r="3" transform="rotate(80.3739 203.276 146.937)" fill="#ED0431"/>
<circle cx="194.402" cy="148.442" r="3" transform="rotate(80.3739 194.402 148.442)" fill="#ED0431"/>
<circle cx="185.529" cy="149.946" r="3" transform="rotate(80.3739 185.529 149.946)" fill="#ED0431"/>
<circle cx="176.656" cy="151.451" r="3" transform="rotate(80.3739 176.656 151.451)" fill="#ED0431"/>
<circle cx="167.782" cy="152.956" r="3" transform="rotate(80.3739 167.782 152.956)" fill="#ED0431"/>
<circle cx="158.909" cy="154.461" r="3" transform="rotate(80.3739 158.909 154.461)" fill="#ED0431"/>
<circle cx="150.036" cy="155.966" r="3" transform="rotate(80.3739 150.036 155.966)" fill="#ED0431"/>
<circle cx="141.163" cy="157.471" r="3" transform="rotate(80.3739 141.163 157.471)" fill="#ED0431"/>
<circle cx="132.289" cy="158.976" r="3" transform="rotate(80.3739 132.289 158.976)" fill="#ED0431"/>
<circle cx="123.416" cy="160.481" r="3" transform="rotate(80.3739 123.416 160.481)" fill="#ED0431"/>
<circle cx="114.543" cy="161.986" r="3" transform="rotate(80.3739 114.543 161.986)" fill="#ED0431"/>
<circle cx="105.669" cy="163.491" r="3" transform="rotate(80.3739 105.669 163.491)" fill="#ED0431"/>
<circle cx="96.7962" cy="164.996" r="3" transform="rotate(80.3739 96.7962 164.996)" fill="#ED0431"/>
<circle cx="87.9229" cy="166.501" r="3" transform="rotate(80.3739 87.9229 166.501)" fill="#ED0431"/>
<circle cx="79.0496" cy="168.006" r="3" transform="rotate(80.3739 79.0496 168.006)" fill="#ED0431"/>
<circle cx="70.1763" cy="169.511" r="3" transform="rotate(80.3739 70.1763 169.511)" fill="#ED0431"/>
<circle cx="61.303" cy="171.016" r="3" transform="rotate(80.3739 61.303 171.016)" fill="#ED0431"/>
<circle cx="52.4298" cy="172.521" r="3" transform="rotate(80.3739 52.4298 172.521)" fill="#ED0431"/>
<circle cx="43.5565" cy="174.026" r="3" transform="rotate(80.3739 43.5565 174.026)" fill="#ED0431"/>
<circle cx="34.6832" cy="175.531" r="3" transform="rotate(80.3739 34.6832 175.531)" fill="#ED0431"/>
<circle cx="204.78" cy="155.81" r="3" transform="rotate(80.3739 204.78 155.81)" fill="#ED0431"/>
<circle cx="195.907" cy="157.315" r="3" transform="rotate(80.3739 195.907 157.315)" fill="#ED0431"/>
<circle cx="187.034" cy="158.82" r="3" transform="rotate(80.3739 187.034 158.82)" fill="#ED0431"/>
<circle cx="178.161" cy="160.325" r="3" transform="rotate(80.3739 178.161 160.325)" fill="#ED0431"/>
<circle cx="169.287" cy="161.83" r="3" transform="rotate(80.3739 169.287 161.83)" fill="#ED0431"/>
<circle cx="160.414" cy="163.335" r="3" transform="rotate(80.3739 160.414 163.335)" fill="#ED0431"/>
<circle cx="151.541" cy="164.84" r="3" transform="rotate(80.3739 151.541 164.84)" fill="#ED0431"/>
<circle cx="142.668" cy="166.345" r="3" transform="rotate(80.3739 142.668 166.345)" fill="#ED0431"/>
<circle cx="133.794" cy="167.85" r="3" transform="rotate(80.3739 133.794 167.85)" fill="#ED0431"/>
<circle cx="124.921" cy="169.355" r="3" transform="rotate(80.3739 124.921 169.355)" fill="#ED0431"/>
<circle cx="116.048" cy="170.859" r="3" transform="rotate(80.3739 116.048 170.859)" fill="#ED0431"/>
<circle cx="107.174" cy="172.364" r="3" transform="rotate(80.3739 107.174 172.364)" fill="#ED0431"/>
<circle cx="98.3011" cy="173.869" r="3" transform="rotate(80.3739 98.3011 173.869)" fill="#ED0431"/>
<circle cx="89.4278" cy="175.374" r="3" transform="rotate(80.3739 89.4278 175.374)" fill="#ED0431"/>
<circle cx="80.5546" cy="176.879" r="3" transform="rotate(80.3739 80.5546 176.879)" fill="#ED0431"/>
<circle cx="71.6813" cy="178.384" r="3" transform="rotate(80.3739 71.6813 178.384)" fill="#ED0431"/>
<circle cx="62.808" cy="179.889" r="3" transform="rotate(80.3739 62.808 179.889)" fill="#ED0431"/>
<circle cx="53.9347" cy="181.394" r="3" transform="rotate(80.3739 53.9347 181.394)" fill="#ED0431"/>
<circle cx="45.0614" cy="182.899" r="3" transform="rotate(80.3739 45.0614 182.899)" fill="#ED0431"/>
<circle cx="36.1881" cy="184.404" r="3" transform="rotate(80.3739 36.1881 184.404)" fill="#ED0431"/>
<circle cx="206.285" cy="164.683" r="3" transform="rotate(80.3739 206.285 164.683)" fill="#ED0431"/>
<circle cx="197.412" cy="166.188" r="3" transform="rotate(80.3739 197.412 166.188)" fill="#ED0431"/>
<circle cx="188.539" cy="167.693" r="3" transform="rotate(80.3739 188.539 167.693)" fill="#ED0431"/>
<circle cx="179.666" cy="169.198" r="3" transform="rotate(80.3739 179.666 169.198)" fill="#ED0431"/>
<circle cx="170.792" cy="170.703" r="3" transform="rotate(80.3739 170.792 170.703)" fill="#ED0431"/>
<circle cx="161.919" cy="172.208" r="3" transform="rotate(80.3739 161.919 172.208)" fill="#ED0431"/>
<circle cx="153.046" cy="173.713" r="3" transform="rotate(80.3739 153.046 173.713)" fill="#ED0431"/>
<circle cx="144.172" cy="175.218" r="3" transform="rotate(80.3739 144.172 175.218)" fill="#ED0431"/>
<circle cx="135.299" cy="176.723" r="3" transform="rotate(80.3739 135.299 176.723)" fill="#ED0431"/>
<circle cx="126.426" cy="178.228" r="3" transform="rotate(80.3739 126.426 178.228)" fill="#ED0431"/>
<circle cx="117.553" cy="179.733" r="3" transform="rotate(80.3739 117.553 179.733)" fill="#ED0431"/>
<circle cx="108.679" cy="181.238" r="3" transform="rotate(80.3739 108.679 181.238)" fill="#ED0431"/>
<circle cx="99.8061" cy="182.743" r="3" transform="rotate(80.3739 99.8061 182.743)" fill="#ED0431"/>
<circle cx="90.9328" cy="184.248" r="3" transform="rotate(80.3739 90.9328 184.248)" fill="#ED0431"/>
<circle cx="82.0595" cy="185.753" r="3" transform="rotate(80.3739 82.0595 185.753)" fill="#ED0431"/>
<circle cx="73.1862" cy="187.258" r="3" transform="rotate(80.3739 73.1862 187.258)" fill="#ED0431"/>
<circle cx="64.313" cy="188.763" r="3" transform="rotate(80.3739 64.313 188.763)" fill="#ED0431"/>
<circle cx="55.4397" cy="190.267" r="3" transform="rotate(80.3739 55.4397 190.267)" fill="#ED0431"/>
<circle cx="46.5664" cy="191.772" r="3" transform="rotate(80.3739 46.5664 191.772)" fill="#ED0431"/>
<circle cx="37.6931" cy="193.277" r="3" transform="rotate(80.3739 37.6931 193.277)" fill="#ED0431"/>
<circle cx="207.79" cy="173.556" r="3" transform="rotate(80.3739 207.79 173.556)" fill="#ED0431"/>
<circle cx="198.917" cy="175.061" r="3" transform="rotate(80.3739 198.917 175.061)" fill="#ED0431"/>
<circle cx="190.044" cy="176.566" r="3" transform="rotate(80.3739 190.044 176.566)" fill="#ED0431"/>
<circle cx="181.171" cy="178.071" r="3" transform="rotate(80.3739 181.171 178.071)" fill="#ED0431"/>
<circle cx="172.297" cy="179.576" r="3" transform="rotate(80.3739 172.297 179.576)" fill="#ED0431"/>
<circle cx="163.424" cy="181.081" r="3" transform="rotate(80.3739 163.424 181.081)" fill="#ED0431"/>
<circle cx="154.551" cy="182.586" r="3" transform="rotate(80.3739 154.551 182.586)" fill="#ED0431"/>
<circle cx="145.677" cy="184.091" r="3" transform="rotate(80.3739 145.677 184.091)" fill="#ED0431"/>
<circle cx="136.804" cy="185.596" r="3" transform="rotate(80.3739 136.804 185.596)" fill="#ED0431"/>
<circle cx="127.931" cy="187.101" r="3" transform="rotate(80.3739 127.931 187.101)" fill="#ED0431"/>
<circle cx="119.058" cy="188.606" r="3" transform="rotate(80.3739 119.058 188.606)" fill="#ED0431"/>
<circle cx="110.184" cy="190.111" r="3" transform="rotate(80.3739 110.184 190.111)" fill="#ED0431"/>
<circle cx="101.311" cy="191.616" r="3" transform="rotate(80.3739 101.311 191.616)" fill="#ED0431"/>
<circle cx="92.4378" cy="193.121" r="3" transform="rotate(80.3739 92.4378 193.121)" fill="#ED0431"/>
<circle cx="83.5645" cy="194.626" r="3" transform="rotate(80.3739 83.5645 194.626)" fill="#ED0431"/>
<circle cx="74.6912" cy="196.131" r="3" transform="rotate(80.3739 74.6912 196.131)" fill="#ED0431"/>
<circle cx="65.8179" cy="197.636" r="3" transform="rotate(80.3739 65.8179 197.636)" fill="#ED0431"/>
<circle cx="56.9446" cy="199.141" r="3" transform="rotate(80.3739 56.9446 199.141)" fill="#ED0431"/>
<circle cx="48.0713" cy="200.646" r="3" transform="rotate(80.3739 48.0713 200.646)" fill="#ED0431"/>
<circle cx="39.1981" cy="202.151" r="3" transform="rotate(80.3739 39.1981 202.151)" fill="#ED0431"/>
<circle cx="209.295" cy="182.43" r="3" transform="rotate(80.3739 209.295 182.43)" fill="#ED0431"/>
<circle cx="200.422" cy="183.935" r="3" transform="rotate(80.3739 200.422 183.935)" fill="#ED0431"/>
<circle cx="191.549" cy="185.44" r="3" transform="rotate(80.3739 191.549 185.44)" fill="#ED0431"/>
<circle cx="182.676" cy="186.945" r="3" transform="rotate(80.3739 182.676 186.945)" fill="#ED0431"/>
<circle cx="173.802" cy="188.45" r="3" transform="rotate(80.3739 173.802 188.45)" fill="#ED0431"/>
<circle cx="164.929" cy="189.955" r="3" transform="rotate(80.3739 164.929 189.955)" fill="#ED0431"/>
<circle cx="156.056" cy="191.46" r="3" transform="rotate(80.3739 156.056 191.46)" fill="#ED0431"/>
<circle cx="147.182" cy="192.964" r="3" transform="rotate(80.3739 147.182 192.964)" fill="#ED0431"/>
<circle cx="138.309" cy="194.469" r="3" transform="rotate(80.3739 138.309 194.469)" fill="#ED0431"/>
<circle cx="129.436" cy="195.974" r="3" transform="rotate(80.3739 129.436 195.974)" fill="#ED0431"/>
<circle cx="120.563" cy="197.479" r="3" transform="rotate(80.3739 120.563 197.479)" fill="#ED0431"/>
<circle cx="111.689" cy="198.984" r="3" transform="rotate(80.3739 111.689 198.984)" fill="#ED0431"/>
<circle cx="102.816" cy="200.489" r="3" transform="rotate(80.3739 102.816 200.489)" fill="#ED0431"/>
<circle cx="93.9427" cy="201.994" r="3" transform="rotate(80.3739 93.9427 201.994)" fill="#ED0431"/>
<circle cx="85.0694" cy="203.499" r="3" transform="rotate(80.3739 85.0694 203.499)" fill="#ED0431"/>
<circle cx="76.1961" cy="205.004" r="3" transform="rotate(80.3739 76.1961 205.004)" fill="#ED0431"/>
<circle cx="67.3229" cy="206.509" r="3" transform="rotate(80.3739 67.3229 206.509)" fill="#ED0431"/>
<circle cx="58.4496" cy="208.014" r="3" transform="rotate(80.3739 58.4496 208.014)" fill="#ED0431"/>
<circle cx="49.5763" cy="209.519" r="3" transform="rotate(80.3739 49.5763 209.519)" fill="#ED0431"/>
<circle cx="40.703" cy="211.024" r="3" transform="rotate(80.3739 40.703 211.024)" fill="#ED0431"/>
<circle cx="210.8" cy="191.303" r="3" transform="rotate(80.3739 210.8 191.303)" fill="#ED0431"/>
<circle cx="201.927" cy="192.808" r="3" transform="rotate(80.3739 201.927 192.808)" fill="#ED0431"/>
<circle cx="193.054" cy="194.313" r="3" transform="rotate(80.3739 193.054 194.313)" fill="#ED0431"/>
<circle cx="184.18" cy="195.818" r="3" transform="rotate(80.3739 184.18 195.818)" fill="#ED0431"/>
<circle cx="175.307" cy="197.323" r="3" transform="rotate(80.3739 175.307 197.323)" fill="#ED0431"/>
<circle cx="166.434" cy="198.828" r="3" transform="rotate(80.3739 166.434 198.828)" fill="#ED0431"/>
<circle cx="157.561" cy="200.333" r="3" transform="rotate(80.3739 157.561 200.333)" fill="#ED0431"/>
<circle cx="148.687" cy="201.838" r="3" transform="rotate(80.3739 148.687 201.838)" fill="#ED0431"/>
<circle cx="139.814" cy="203.343" r="3" transform="rotate(80.3739 139.814 203.343)" fill="#ED0431"/>
<circle cx="130.941" cy="204.848" r="3" transform="rotate(80.3739 130.941 204.848)" fill="#ED0431"/>
<circle cx="122.067" cy="206.353" r="3" transform="rotate(80.3739 122.067 206.353)" fill="#ED0431"/>
<circle cx="113.194" cy="207.858" r="3" transform="rotate(80.3739 113.194 207.858)" fill="#ED0431"/>
<circle cx="104.321" cy="209.362" r="3" transform="rotate(80.3739 104.321 209.362)" fill="#ED0431"/>
<circle cx="95.4477" cy="210.867" r="3" transform="rotate(80.3739 95.4477 210.867)" fill="#ED0431"/>
<circle cx="86.5744" cy="212.372" r="3" transform="rotate(80.3739 86.5744 212.372)" fill="#ED0431"/>
<circle cx="77.7011" cy="213.877" r="3" transform="rotate(80.3739 77.7011 213.877)" fill="#ED0431"/>
<circle cx="68.8278" cy="215.382" r="3" transform="rotate(80.3739 68.8278 215.382)" fill="#ED0431"/>
<circle cx="59.9545" cy="216.887" r="3" transform="rotate(80.3739 59.9545 216.887)" fill="#ED0431"/>
<circle cx="51.0813" cy="218.392" r="3" transform="rotate(80.3739 51.0813 218.392)" fill="#ED0431"/>
<circle cx="42.208" cy="219.897" r="3" transform="rotate(80.3739 42.208 219.897)" fill="#ED0431"/>
<circle cx="212.305" cy="200.176" r="3" transform="rotate(80.3739 212.305 200.176)" fill="#ED0431"/>
<circle cx="203.432" cy="201.681" r="3" transform="rotate(80.3739 203.432 201.681)" fill="#ED0431"/>
<circle cx="194.559" cy="203.186" r="3" transform="rotate(80.3739 194.559 203.186)" fill="#ED0431"/>
<circle cx="185.685" cy="204.691" r="3" transform="rotate(80.3739 185.685 204.691)" fill="#ED0431"/>
<circle cx="176.812" cy="206.196" r="3" transform="rotate(80.3739 176.812 206.196)" fill="#ED0431"/>
<circle cx="167.939" cy="207.701" r="3" transform="rotate(80.3739 167.939 207.701)" fill="#ED0431"/>
<circle cx="159.066" cy="209.206" r="3" transform="rotate(80.3739 159.066 209.206)" fill="#ED0431"/>
<circle cx="150.192" cy="210.711" r="3" transform="rotate(80.3739 150.192 210.711)" fill="#ED0431"/>
<circle cx="141.319" cy="212.216" r="3" transform="rotate(80.3739 141.319 212.216)" fill="#ED0431"/>
<circle cx="132.446" cy="213.721" r="3" transform="rotate(80.3739 132.446 213.721)" fill="#ED0431"/>
<circle cx="123.572" cy="215.226" r="3" transform="rotate(80.3739 123.572 215.226)" fill="#ED0431"/>
<circle cx="114.699" cy="216.731" r="3" transform="rotate(80.3739 114.699 216.731)" fill="#ED0431"/>
<circle cx="105.826" cy="218.236" r="3" transform="rotate(80.3739 105.826 218.236)" fill="#ED0431"/>
<circle cx="96.9526" cy="219.741" r="3" transform="rotate(80.3739 96.9526 219.741)" fill="#ED0431"/>
<circle cx="88.0793" cy="221.246" r="3" transform="rotate(80.3739 88.0793 221.246)" fill="#ED0431"/>
<circle cx="79.2061" cy="222.751" r="3" transform="rotate(80.3739 79.2061 222.751)" fill="#ED0431"/>
<circle cx="70.3328" cy="224.256" r="3" transform="rotate(80.3739 70.3328 224.256)" fill="#ED0431"/>
<circle cx="61.4595" cy="225.761" r="3" transform="rotate(80.3739 61.4595 225.761)" fill="#ED0431"/>
<circle cx="52.5862" cy="227.266" r="3" transform="rotate(80.3739 52.5862 227.266)" fill="#ED0431"/>
<circle cx="43.7129" cy="228.77" r="3" transform="rotate(80.3739 43.7129 228.77)" fill="#ED0431"/>
<circle cx="213.81" cy="209.05" r="3" transform="rotate(80.3739 213.81 209.05)" fill="#ED0431"/>
<circle cx="204.937" cy="210.555" r="3" transform="rotate(80.3739 204.937 210.555)" fill="#ED0431"/>
<circle cx="196.064" cy="212.06" r="3" transform="rotate(80.3739 196.064 212.06)" fill="#ED0431"/>
<circle cx="187.19" cy="213.564" r="3" transform="rotate(80.3739 187.19 213.564)" fill="#ED0431"/>
<circle cx="178.317" cy="215.069" r="3" transform="rotate(80.3739 178.317 215.069)" fill="#ED0431"/>
<circle cx="169.444" cy="216.574" r="3" transform="rotate(80.3739 169.444 216.574)" fill="#ED0431"/>
<circle cx="160.571" cy="218.079" r="3" transform="rotate(80.3739 160.571 218.079)" fill="#ED0431"/>
<circle cx="151.697" cy="219.584" r="3" transform="rotate(80.3739 151.697 219.584)" fill="#ED0431"/>
<circle cx="142.824" cy="221.089" r="3" transform="rotate(80.3739 142.824 221.089)" fill="#ED0431"/>
<circle cx="133.951" cy="222.594" r="3" transform="rotate(80.3739 133.951 222.594)" fill="#ED0431"/>
<circle cx="125.077" cy="224.099" r="3" transform="rotate(80.3739 125.077 224.099)" fill="#ED0431"/>
<circle cx="116.204" cy="225.604" r="3" transform="rotate(80.3739 116.204 225.604)" fill="#ED0431"/>
<circle cx="107.331" cy="227.109" r="3" transform="rotate(80.3739 107.331 227.109)" fill="#ED0431"/>
<circle cx="98.4576" cy="228.614" r="3" transform="rotate(80.3739 98.4576 228.614)" fill="#ED0431"/>
<circle cx="89.5843" cy="230.119" r="3" transform="rotate(80.3739 89.5843 230.119)" fill="#ED0431"/>
<circle cx="80.711" cy="231.624" r="3" transform="rotate(80.3739 80.711 231.624)" fill="#ED0431"/>
<circle cx="71.8377" cy="233.129" r="3" transform="rotate(80.3739 71.8377 233.129)" fill="#ED0431"/>
<circle cx="62.9645" cy="234.634" r="3" transform="rotate(80.3739 62.9645 234.634)" fill="#ED0431"/>
<circle cx="54.0912" cy="236.139" r="3" transform="rotate(80.3739 54.0912 236.139)" fill="#ED0431"/>
<circle cx="45.2179" cy="237.644" r="3" transform="rotate(80.3739 45.2179 237.644)" fill="#ED0431"/>
<circle cx="215.315" cy="217.923" r="3" transform="rotate(80.3739 215.315 217.923)" fill="#ED0431"/>
<circle cx="206.442" cy="219.428" r="3" transform="rotate(80.3739 206.442 219.428)" fill="#ED0431"/>
<circle cx="197.569" cy="220.933" r="3" transform="rotate(80.3739 197.569 220.933)" fill="#ED0431"/>
<circle cx="188.695" cy="222.438" r="3" transform="rotate(80.3739 188.695 222.438)" fill="#ED0431"/>
<circle cx="179.822" cy="223.943" r="3" transform="rotate(80.3739 179.822 223.943)" fill="#ED0431"/>
<circle cx="170.949" cy="225.448" r="3" transform="rotate(80.3739 170.949 225.448)" fill="#ED0431"/>
<circle cx="162.076" cy="226.953" r="3" transform="rotate(80.3739 162.076 226.953)" fill="#ED0431"/>
<circle cx="153.202" cy="228.458" r="3" transform="rotate(80.3739 153.202 228.458)" fill="#ED0431"/>
<circle cx="144.329" cy="229.962" r="3" transform="rotate(80.3739 144.329 229.962)" fill="#ED0431"/>
<circle cx="135.456" cy="231.467" r="3" transform="rotate(80.3739 135.456 231.467)" fill="#ED0431"/>
<circle cx="126.582" cy="232.972" r="3" transform="rotate(80.3739 126.582 232.972)" fill="#ED0431"/>
<circle cx="117.709" cy="234.477" r="3" transform="rotate(80.3739 117.709 234.477)" fill="#ED0431"/>
<circle cx="108.836" cy="235.982" r="3" transform="rotate(80.3739 108.836 235.982)" fill="#ED0431"/>
<circle cx="99.9625" cy="237.487" r="3" transform="rotate(80.3739 99.9625 237.487)" fill="#ED0431"/>
<circle cx="91.0893" cy="238.992" r="3" transform="rotate(80.3739 91.0893 238.992)" fill="#ED0431"/>
<circle cx="82.216" cy="240.497" r="3" transform="rotate(80.3739 82.216 240.497)" fill="#ED0431"/>
<circle cx="73.3427" cy="242.002" r="3" transform="rotate(80.3739 73.3427 242.002)" fill="#ED0431"/>
<circle cx="64.4694" cy="243.507" r="3" transform="rotate(80.3739 64.4694 243.507)" fill="#ED0431"/>
<circle cx="55.5961" cy="245.012" r="3" transform="rotate(80.3739 55.5961 245.012)" fill="#ED0431"/>
<circle cx="46.7228" cy="246.517" r="3" transform="rotate(80.3739 46.7228 246.517)" fill="#ED0431"/>
<circle cx="216.82" cy="226.796" r="3" transform="rotate(80.3739 216.82 226.796)" fill="#ED0431"/>
<circle cx="207.947" cy="228.301" r="3" transform="rotate(80.3739 207.947 228.301)" fill="#ED0431"/>
<circle cx="199.074" cy="229.806" r="3" transform="rotate(80.3739 199.074 229.806)" fill="#ED0431"/>
<circle cx="190.2" cy="231.311" r="3" transform="rotate(80.3739 190.2 231.311)" fill="#ED0431"/>
<circle cx="181.327" cy="232.816" r="3" transform="rotate(80.3739 181.327 232.816)" fill="#ED0431"/>
<circle cx="172.454" cy="234.321" r="3" transform="rotate(80.3739 172.454 234.321)" fill="#ED0431"/>
<circle cx="163.58" cy="235.826" r="3" transform="rotate(80.3739 163.58 235.826)" fill="#ED0431"/>
<circle cx="154.707" cy="237.331" r="3" transform="rotate(80.3739 154.707 237.331)" fill="#ED0431"/>
<circle cx="145.834" cy="238.836" r="3" transform="rotate(80.3739 145.834 238.836)" fill="#ED0431"/>
<circle cx="136.961" cy="240.341" r="3" transform="rotate(80.3739 136.961 240.341)" fill="#ED0431"/>
<circle cx="128.087" cy="241.846" r="3" transform="rotate(80.3739 128.087 241.846)" fill="#ED0431"/>
<circle cx="119.214" cy="243.351" r="3" transform="rotate(80.3739 119.214 243.351)" fill="#ED0431"/>
<circle cx="110.341" cy="244.856" r="3" transform="rotate(80.3739 110.341 244.856)" fill="#ED0431"/>
<circle cx="101.467" cy="246.361" r="3" transform="rotate(80.3739 101.467 246.361)" fill="#ED0431"/>
<circle cx="92.5942" cy="247.866" r="3" transform="rotate(80.3739 92.5942 247.866)" fill="#ED0431"/>
<circle cx="83.7209" cy="249.371" r="3" transform="rotate(80.3739 83.7209 249.371)" fill="#ED0431"/>
<circle cx="74.8476" cy="250.875" r="3" transform="rotate(80.3739 74.8476 250.875)" fill="#ED0431"/>
<circle cx="65.9744" cy="252.38" r="3" transform="rotate(80.3739 65.9744 252.38)" fill="#ED0431"/>
<circle cx="57.1011" cy="253.885" r="3" transform="rotate(80.3739 57.1011 253.885)" fill="#ED0431"/>
<circle cx="48.2278" cy="255.39" r="3" transform="rotate(80.3739 48.2278 255.39)" fill="#ED0431"/>
<circle cx="218.325" cy="235.669" r="3" transform="rotate(80.3739 218.325 235.669)" fill="#ED0431"/>
<circle cx="209.452" cy="237.174" r="3" transform="rotate(80.3739 209.452 237.174)" fill="#ED0431"/>
<circle cx="200.579" cy="238.679" r="3" transform="rotate(80.3739 200.579 238.679)" fill="#ED0431"/>
<circle cx="191.705" cy="240.184" r="3" transform="rotate(80.3739 191.705 240.184)" fill="#ED0431"/>
<circle cx="182.832" cy="241.689" r="3" transform="rotate(80.3739 182.832 241.689)" fill="#ED0431"/>
<circle cx="173.959" cy="243.194" r="3" transform="rotate(80.3739 173.959 243.194)" fill="#ED0431"/>
<circle cx="165.085" cy="244.699" r="3" transform="rotate(80.3739 165.085 244.699)" fill="#ED0431"/>
<circle cx="156.212" cy="246.204" r="3" transform="rotate(80.3739 156.212 246.204)" fill="#ED0431"/>
<circle cx="147.339" cy="247.709" r="3" transform="rotate(80.3739 147.339 247.709)" fill="#ED0431"/>
<circle cx="138.466" cy="249.214" r="3" transform="rotate(80.3739 138.466 249.214)" fill="#ED0431"/>
<circle cx="129.592" cy="250.719" r="3" transform="rotate(80.3739 129.592 250.719)" fill="#ED0431"/>
<circle cx="120.719" cy="252.224" r="3" transform="rotate(80.3739 120.719 252.224)" fill="#ED0431"/>
<circle cx="111.846" cy="253.729" r="3" transform="rotate(80.3739 111.846 253.729)" fill="#ED0431"/>
<circle cx="102.972" cy="255.234" r="3" transform="rotate(80.3739 102.972 255.234)" fill="#ED0431"/>
<circle cx="94.0992" cy="256.739" r="3" transform="rotate(80.3739 94.0992 256.739)" fill="#ED0431"/>
<circle cx="85.2259" cy="258.244" r="3" transform="rotate(80.3739 85.2259 258.244)" fill="#ED0431"/>
<circle cx="76.3526" cy="259.749" r="3" transform="rotate(80.3739 76.3526 259.749)" fill="#ED0431"/>
<circle cx="67.4793" cy="261.254" r="3" transform="rotate(80.3739 67.4793 261.254)" fill="#ED0431"/>
<circle cx="58.606" cy="262.759" r="3" transform="rotate(80.3739 58.606 262.759)" fill="#ED0431"/>
<circle cx="49.7328" cy="264.264" r="3" transform="rotate(80.3739 49.7328 264.264)" fill="#ED0431"/>
</svg>
